<?xml version="1.0" encoding="UTF-8"?>
<svg xmlns="http://www.w3.org/2000/svg" viewBox="0 0 947.73 233.5">
  <defs>
    <style>
      .cls-1 {
        fill: #2dad86;
      }

.cls-3 {
        fill: #c9a46c;
      }

      .cls-4 {
        fill: #2bad86;
      }
    </style>
  </defs>
<g id="Layer_1" data-name="Layer 1">
    <g>
      <g>
        <path class="cls-1" d="M181.24,172.51c-6.67-4.49-14.28-11.76-19.13-21.08-3.04,12.01-11.29,23.53-24.39,21.33-24.58-7.91-19-49.12-13.32-68.36.58-2.01,3.66-1.13,3.04.92-3.95,15.9-6.61,33.28-1.56,49.21,3.76,10.69,13.89,19.92,24,10.11,5.88-5.81,8.44-14.49,8.53-22.74v-.02c-.83-3.21-1.3-6.58-1.3-10.11,0-18.85-17.61-36.7-42-36.7-22.04,0-28.28,5.32-29.26,15.63-.21,2.18-1.41,4.13-3.33,5.17-3.83,2.05-10.24,5.6-13.92,8.12-1.99,1.35-3.83,2.57-5.43,3.74-.85.64-1.67,1.28-2.37,1.95,0,0,7.59,2.22,3.53,8.04-3.8,5.41-4.94,8.17-4,10.13.06.15.15.28.24.43,4.68,8.04,10.28,7.63,20.61,7.4,11.05-.26,37.96,6.54,37.96,33.2s-14.83,27.15-22.38,27.15-15.33,4.79-15.33,16.87h73.68c15.58,0,43.76-1.26,43.76-34.71,0-9.81-6.8-18.36-17.61-25.65ZM97.49,125.46c-2.78,0-5.02-1.9-5.02-4.25s2.24-4.23,5.02-4.23,5,1.9,5,4.23-2.24,4.25-5,4.25Z"/>
        <path class="cls-3" d="M100.05,183.35c-3.44-1.9-.9-4.75-.36-5.3-1.56-.6-3.36-.77-5.22-.51-5.54.77-11.56-5.51-14.83-11.05-2.39-4.04-13.42-4.19-19.17-3.98-2.09.06-3.93-1.3-4.47-3.31l-4.17-15.37s-23.49,20.14-24.24,49.06c-.98,37.22,45.27,39.99,45.27,39.99-5.79-12.83,7.52-22.89,19.6-26.91,10.84-3.61,12.33-11.67,12.53-17.83v-.13c.02-.06.02-.15.02-.24v-.02c-.06-1.28-1.45-2.48-4.96-4.4ZM47.55,218.36c-13.15-10.35-16.29-27.13-9.49-42.07,1.99-4.66,4.51-9,7.67-13.02.36-.45,1.05-.53,1.52-.17.47.38.53,1.07.15,1.54-11.63,15.8-14.71,37.49,2.78,50.34,2.2,1.75-.36,5.09-2.63,3.38ZM78.38,183.13c-2.78,0-5.02-.9-5.02-2.01s2.24-2.01,5.02-2.01,5,.9,5,2.01-2.24,2.01-5,2.01Z"/>
        <path class="cls-3" d="M.16,102.98c.96-11.72,4.97-38.08,19.7-38.08s27.98,30.79,27.98,50.33-14.57,23.84-23.84,23.84S-1.82,127.31.16,102.98Z"/>
        <path class="cls-3" d="M51.08,48.01C51.61,40.08,60.35,0,82.37,0s24.17,53.31,17.22,67.05c-6.95,13.74-18.21,15.4-24.5,15.4s-25.83-7.28-24.01-34.44Z"/>
        <path class="cls-3" d="M216.78,102.98c-.96-11.72-4.97-38.08-19.7-38.08-14.73,0-27.98,30.79-27.98,50.33,0,19.54,14.57,23.84,23.84,23.84,9.27,0,25.83-11.75,23.84-36.09Z"/>
        <path class="cls-3" d="M165.86,48.01C165.33,40.08,156.59,0,134.57,0c-22.02,0-24.17,53.31-17.22,67.05,6.95,13.74,18.21,15.4,24.5,15.4,6.29,0,25.83-7.28,24.01-34.44Z"/>
      </g>
      <g>
        <path class="cls-4" d="M316.26,28.42c-7.28,0-14.71.76-22.28,2.29-7.58,1.53-14.46,4.01-20.66,7.45-6.2,3.44-11.29,7.99-15.27,13.65-3.98,5.66-5.98,12.67-5.98,21.02,0,4.33.54,8.46,1.62,12.39,1.08,3.93,2.36,7.52,3.84,10.77,1.48,3.25,2.95,6.03,4.43,8.34,1.48,2.31,2.66,4.01,3.54,5.09.49.59.93,1.28,1.33,2.07.39.79.59,1.48.59,2.07,0,.79-.32,1.48-.96,2.07-.64.59-1.8.89-3.47.89-2.36,0-5.48-.81-9.37-2.43-3.89-1.62-7.67-4.11-11.36-7.45-3.69-3.34-6.86-7.62-9.52-12.84-2.66-5.21-3.98-11.36-3.98-18.44,0-5.02.98-10.23,2.95-15.64,1.97-5.41,4.84-10.75,8.63-16.01,3.79-5.26,8.46-10.25,14.02-14.97,5.56-4.72,11.9-8.85,19.03-12.39,7.13-3.54,15-6.37,23.61-8.48,8.61-2.11,17.93-3.17,27.96-3.17,13.38,0,25.08,2.14,35.11,6.42,10.03,4.28,18.39,9.96,25.08,17.04,6.69,7.08,11.73,15.25,15.12,24.49,3.39,9.25,5.09,18.88,5.09,28.92,0,12.3-2.09,23.41-6.27,33.34-4.18,9.94-10.21,18.39-18.07,25.38-7.87,6.99-17.46,12.37-28.77,16.16-11.31,3.79-24.1,5.68-38.36,5.68-1.08,0-2.24.03-3.47.07-1.23.05-2.36-.05-3.39-.29-1.03-.24-1.87-.64-2.51-1.18-.64-.54-.96-1.4-.96-2.58,0-1.08.3-2.11.89-3.1.59-.98,1.42-1.52,2.51-1.62,12.69-.98,23.36-3.29,32.02-6.93,8.65-3.64,15.61-8.29,20.88-13.94,5.26-5.65,9.05-12.2,11.36-19.62,2.31-7.42,3.47-15.42,3.47-23.97,0-10.82-1.53-20.07-4.57-27.74-3.05-7.67-7.23-13.94-12.54-18.81-5.31-4.87-11.51-8.41-18.59-10.62-7.08-2.21-14.66-3.32-22.72-3.32ZM295.9,51.88c.98-2.16,2.36-3.91,4.13-5.24,1.77-1.33,3.79-1.99,6.05-1.99.79,0,1.82.25,3.1.74,1.28.49,1.92,1.28,1.92,2.36,0,.79-.07,1.5-.22,2.14-.15.64-.32,1.5-.52,2.58-1.77,8.36-3.32,16.87-4.65,25.52-1.33,8.66-2.49,17.17-3.47,25.52-.98,8.36-1.8,16.4-2.43,24.12-.64,7.72-1.13,14.88-1.48,21.47-.35,6.59-.59,12.42-.74,17.48-.15,5.07-.22,9.12-.22,12.17,0,4.92-.03,9.94-.07,15.05-.05,5.12-.07,9.91-.07,14.39s-.02,8.43-.07,11.88c-.05,3.44-.07,5.9-.07,7.38v1.62c0,.69-.1,1.35-.29,1.99-.2.64-.52,1.2-.96,1.7-.44.49-1.06.74-1.84.74-1.28,0-2.46-.25-3.54-.74-1.08-.49-2.12-1.06-3.1-1.7-.98-.64-1.94-1.21-2.88-1.7-.94-.49-1.84-.74-2.73-.74-1.08,0-1.97.34-2.66,1.03-.69.69-1.53,1.03-2.51,1.03-1.18,0-2.12-.3-2.8-.89-.69-.59-1.18-1.33-1.48-2.21-.29-.89-.47-1.82-.52-2.8-.05-.98-.07-1.87-.07-2.66,0-1.87.02-4.82.07-8.85.05-4.03.15-8.58.3-13.65.15-5.06.32-10.38.52-15.93.2-5.56.39-10.79.59-15.71.29-5.7.66-11.83,1.11-18.37.44-6.54.96-13.06,1.55-19.55.59-6.49,1.2-12.81,1.84-18.96.64-6.15,1.23-11.75,1.77-16.82.54-5.06,1.03-9.37,1.48-12.91.44-3.54.76-6,.96-7.38.69-4.33,1.4-8.02,2.14-11.07.74-3.05,1.55-5.11,2.43-6.2.69-.88,1.52-1.67,2.51-2.36.79-.59,1.77-1.16,2.95-1.7,1.18-.54,2.51-.81,3.98-.81Z"/>
        <path class="cls-4" d="M471.91,159.14c.59,0,1.11.2,1.55.59.44.39.66.98.66,1.77s-.15,1.53-.44,2.21c-1.48,4.13-3.08,8.02-4.79,11.66-1.72,3.64-3.32,6.89-4.8,9.74-1.77,3.25-3.49,6.29-5.16,9.15-2.07,3.25-4.35,6.32-6.86,9.22-2.51,2.9-5.24,5.46-8.19,7.67-2.95,2.21-6.15,3.96-9.59,5.24-3.44,1.28-7.08,1.92-10.92,1.92-2.85,0-5.98-.49-9.37-1.48-3.39-.98-6.54-2.8-9.44-5.46-2.9-2.66-5.31-6.29-7.23-10.92-1.92-4.62-2.88-10.57-2.88-17.85,0-3.34.32-6.74.96-10.18.64-3.44,1.53-6.74,2.66-9.89,1.13-3.15,2.41-6.1,3.84-8.85,1.42-2.75,2.88-5.16,4.35-7.23,2.56-3.54,5.26-6.86,8.11-9.96,2.85-3.1,5.73-5.8,8.63-8.11,2.9-2.31,5.73-4.11,8.48-5.39,2.75-1.28,5.31-1.92,7.67-1.92,3.74,0,7.01,1.43,9.81,4.28,2.8,2.85,4.21,6.93,4.21,12.25,0,4.62-1.18,9.42-3.54,14.39-2.36,4.97-5.31,9.81-8.85,14.53-3.54,4.72-7.33,9.1-11.36,13.13-4.03,4.03-7.72,7.38-11.07,10.03,1.77,4.43,4.03,7.67,6.79,9.74,2.75,2.07,5.56,3.1,8.41,3.1,4.43,0,8.38-1.42,11.88-4.28,3.49-2.85,6.64-6.34,9.44-10.48,2.8-4.13,5.26-8.46,7.38-12.98,2.12-4.52,4.01-8.51,5.68-11.95.59-1.18,1.18-2.09,1.77-2.73.59-.64,1.33-.96,2.21-.96ZM414.52,166.22c0,5.8.44,10.92,1.33,15.34,1.97-1.97,3.96-4.21,5.98-6.71,2.01-2.51,3.84-5.09,5.46-7.75,1.62-2.66,2.95-5.36,3.98-8.12,1.03-2.75,1.55-5.41,1.55-7.97,0-3.93-.84-6.98-2.51-9.15-1.67-2.16-3.35-3.25-5.02-3.25-.98,0-2.09.62-3.32,1.84-1.23,1.23-2.41,3.02-3.54,5.38-1.13,2.36-2.07,5.24-2.8,8.63s-1.11,7.3-1.11,11.73Z"/>
        <path class="cls-4" d="M527.83,163.72c-3.15,9.05-5.97,16.92-8.48,23.61-2.51,6.69-5.04,12.27-7.6,16.75-2.56,4.48-5.31,7.82-8.26,10.03s-6.49,3.32-10.62,3.32c-2.36,0-4.87-.66-7.52-1.99-2.66-1.33-5.11-3.86-7.38-7.6-2.26-3.74-4.13-8.97-5.61-15.71-1.48-6.74-2.21-15.51-2.21-26.34,0-2.85.12-6.61.37-11.29.25-4.67.54-9.88.89-15.64.34-5.75.76-11.85,1.25-18.29.49-6.44,1.03-12.91,1.62-19.4-.49.1-.94.17-1.33.22-.39.05-.84.07-1.33.07-5.31.59-9.2,1.11-11.66,1.55-2.46.44-3.93.91-4.43,1.4-.49.39-.74.86-.74,1.4s-.02,1.03-.07,1.48c-.05.44-.2.84-.44,1.18-.24.35-.76.52-1.55.52-.49,0-1.11-.12-1.84-.37-.74-.24-1.48-.64-2.21-1.18-.74-.54-1.35-1.23-1.84-2.07-.49-.83-.74-1.84-.74-3.02,0-1.08.22-2.21.66-3.39.44-1.18,1.01-2.31,1.7-3.39.69-1.18,1.7-2.6,3.02-4.28,1.33-1.67,3.1-3.37,5.31-5.09,2.21-1.72,4.94-3.32,8.19-4.79,3.25-1.48,7.08-2.66,11.51-3.54.49-4.13,1.01-7.79,1.55-10.99.54-3.2,1.11-6.05,1.7-8.56.59-2.51,1.16-4.77,1.7-6.79.54-2.02,1.11-3.86,1.7-5.53,1.18-3.84,2.66-6.76,4.43-8.78,1.77-2.01,3.79-4.15,6.05-6.42,2.46-2.46,4.55-4.11,6.27-4.94,1.72-.83,3.03-1.3,3.91-1.4.89,0,1.7.27,2.43.81.74.54,1.11,1.5,1.11,2.88,0,.79-.05,1.45-.15,1.99-.1.54-.2,1.01-.29,1.4-.29,1.08-.76,3-1.4,5.75-.64,2.75-1.38,6.12-2.21,10.11-.84,3.98-1.7,8.46-2.58,13.43-.88,4.97-1.67,10.25-2.36,15.86,5.31.39,9.76,1.06,13.35,1.99,3.59.94,5.78,1.5,6.57,1.7,1.67.59,2.8,1.13,3.39,1.62.59.49,1.13,1.33,1.62,2.51.39.79.86,1.43,1.4,1.92.54.49,1.08.94,1.62,1.33.54.39,1.01.84,1.4,1.33.39.49.59,1.18.59,2.07,0,.79-.2,1.55-.59,2.29-.39.74-.84,1.21-1.33,1.4-.69.39-1.97.76-3.84,1.11-1.87.35-4.13.69-6.79,1.03-2.66.35-5.68.69-9.07,1.03-3.39.35-6.91.71-10.55,1.11-1.18,12.2-2.34,23.95-3.47,35.26-1.13,11.31-1.7,21.39-1.7,30.25,0,4.53.27,8.66.81,12.39.54,3.74,1.35,6.96,2.43,9.66,1.08,2.71,2.38,4.79,3.91,6.27,1.52,1.48,3.27,2.21,5.24,2.21,1.77,0,3.39-.81,4.87-2.43,1.47-1.62,2.95-3.86,4.43-6.71,1.48-2.85,2.97-6.25,4.5-10.18,1.52-3.93,3.17-8.26,4.94-12.98.89-2.46,2.16-3.69,3.84-3.69,1.57,0,2.36.89,2.36,2.66,0,.29-.05.64-.15,1.03-.1.39-.2.69-.29.89Z"/>
        <path class="cls-4" d="M735.27,54.24c0,5.31-.66,10.57-1.99,15.79-1.33,5.21-3.42,10.33-6.27,15.34-2.66,4.72-5.83,8.8-9.52,12.25-3.69,3.44-7.5,6.32-11.43,8.63-3.94,2.31-7.8,4.03-11.58,5.16-3.79,1.13-7.11,1.7-9.96,1.7-2.66,0-4.7-.39-6.12-1.18-1.43-.79-2.14-1.77-2.14-2.95,0-1.38,1.23-2.56,3.69-3.54,1.57-.69,3.91-2.07,7.01-4.13,3.1-2.07,6.2-4.99,9.29-8.78,3.1-3.79,5.83-8.51,8.19-14.16,2.36-5.65,3.54-12.37,3.54-20.14,0-6.88-1.03-12.74-3.1-17.56-2.07-4.82-4.77-8.73-8.12-11.73-3.34-3-7.11-5.19-11.29-6.57-4.18-1.38-8.39-2.07-12.62-2.07-9.05,0-17.17,2.71-24.34,8.11-7.18,5.41-13.28,12.81-18.29,22.21-5.02,9.39-8.85,20.41-11.51,33.05-2.66,12.64-3.98,26.24-3.98,40.79,0,10.72.81,20.39,2.43,28.99,1.62,8.61,3.81,16.18,6.57,22.72,2.75,6.54,6,12.15,9.74,16.82,3.74,4.67,7.67,8.48,11.8,11.43,4.13,2.95,8.38,5.12,12.76,6.49,4.38,1.38,8.63,2.07,12.76,2.07,7.47,0,14.19-1.35,20.14-4.06,5.95-2.7,11.26-6.34,15.93-10.92,4.67-4.57,8.78-9.88,12.32-15.93,3.54-6.05,6.64-12.47,9.29-19.25.49-1.28,1.16-2.21,1.99-2.8.83-.59,1.65-.89,2.43-.89,1.38,0,2.07.79,2.07,2.36,0,.69-.42,2.31-1.25,4.87-.84,2.56-2.02,5.61-3.54,9.15-1.53,3.54-3.32,7.35-5.38,11.43-2.07,4.08-4.33,7.99-6.79,11.73-7.38,11.31-15.86,19.84-25.45,25.6-9.59,5.75-20.88,8.63-33.86,8.63-11.71,0-22.01-2.56-30.91-7.67-8.9-5.12-16.38-12.05-22.43-20.8-6.05-8.75-10.6-18.93-13.65-30.54-3.05-11.6-4.57-23.85-4.57-36.74,0-15.44,1.57-29.46,4.72-42.05,3.15-12.59,7.1-23.7,11.88-33.34,4.77-9.64,9.93-17.83,15.49-24.57,5.56-6.74,10.79-12.02,15.71-15.86,2.56-2.07,5.61-4.18,9.15-6.34,3.54-2.16,7.42-4.11,11.66-5.83,4.23-1.72,8.73-3.15,13.5-4.28,4.77-1.13,9.66-1.7,14.68-1.7,7.87,0,14.98,1.35,21.32,4.06,6.34,2.71,11.73,6.37,16.16,10.99,4.43,4.62,7.84,10.03,10.25,16.23,2.41,6.2,3.62,12.79,3.62,19.77Z"/>
        <path class="cls-4" d="M811.7,163.72c-2.95,8.85-5.71,16.6-8.26,23.24-2.56,6.64-5.12,12.2-7.67,16.67-2.56,4.48-5.29,7.84-8.19,10.11-2.9,2.26-6.12,3.39-9.66,3.39-2.46,0-4.5-.79-6.12-2.36s-2.98-3.34-4.06-5.31c-1.08-1.97-1.89-3.86-2.43-5.68-.54-1.82-.91-3.02-1.11-3.61-.1-.2-.2-.49-.29-.89-.1-.39-.25-.59-.44-.59s-.37.15-.52.44-.32.59-.52.89c-.29.69-1.08,1.97-2.36,3.84-1.28,1.87-2.88,3.79-4.79,5.75-1.92,1.97-4.11,3.71-6.57,5.24-2.46,1.52-5.12,2.29-7.97,2.29-2.26,0-4.45-.74-6.57-2.21-2.12-1.48-3.96-3.47-5.53-5.98-1.57-2.51-2.83-5.48-3.76-8.93-.93-3.44-1.4-7.13-1.4-11.07,0-8.56,1.35-16.6,4.06-24.12s7.11-15.07,13.21-22.65c2.95-3.64,6.07-6.88,9.37-9.74,3.29-2.85,6.51-5.24,9.66-7.16,3.15-1.92,6.17-3.37,9.07-4.35,2.9-.98,5.39-1.48,7.45-1.48,1.38,0,2.75.25,4.13.74,1.38.49,2.6,1.33,3.69,2.51,1.08,1.18,1.94,2.73,2.58,4.65.64,1.92.96,4.26.96,7.01,0,2.95-.47,6.15-1.4,9.59-.94,3.44-2.31,6.67-4.13,9.66-1.82,3-4.06,5.48-6.71,7.45-2.66,1.97-5.66,2.95-9,2.95-2.07,0-3.1-.79-3.1-2.36,0-1.08.27-2.85.81-5.31.54-2.46.81-4.82.81-7.08,0-.89-.05-1.94-.15-3.17-.1-1.23-.35-2.43-.74-3.62-.39-1.18-.94-2.16-1.62-2.95-.69-.79-1.62-1.18-2.8-1.18-2.66,0-4.97,1.23-6.93,3.69-1.97,2.46-3.62,5.46-4.94,9-1.33,3.54-2.34,7.23-3.03,11.07-.69,3.84-1.03,7.13-1.03,9.88,0,3.74.29,6.86.88,9.37.59,2.51,1.38,4.53,2.36,6.05.98,1.53,2.11,2.61,3.39,3.25,1.28.64,2.61.96,3.98.96,3.25,0,6.15-1.11,8.7-3.32,2.56-2.21,4.77-4.67,6.64-7.38,1.87-2.7,3.42-5.16,4.65-7.38,1.23-2.21,2.24-3.32,3.02-3.32.89,0,1.48,1.03,1.77,3.1.59,4.43,1.23,8.07,1.92,10.92.69,2.85,1.38,5.09,2.07,6.71.69,1.62,1.4,2.75,2.14,3.39.74.64,1.5.96,2.29.96,1.48,0,2.95-.86,4.43-2.58,1.48-1.72,2.95-4.06,4.43-7.01,1.48-2.95,3-6.39,4.57-10.33,1.57-3.93,3.25-8.11,5.02-12.54,1.08-2.46,2.36-3.69,3.84-3.69s2.21.89,2.21,2.66c0,.69-.1,1.33-.29,1.92Z"/>
        <path class="cls-4" d="M877.94,163.72c-2.26,7.67-4.57,14.75-6.93,21.25-2.36,6.49-4.87,12.1-7.52,16.82-2.66,4.72-5.58,8.41-8.78,11.07-3.2,2.66-6.81,3.98-10.84,3.98-4.92,0-8.88-2.48-11.88-7.45-3-4.96-4.5-11.53-4.5-19.7,0-3.54.17-6.88.52-10.03.34-3.15.74-6.2,1.18-9.15.44-2.95.83-5.8,1.18-8.56.34-2.75.52-5.46.52-8.12,0-2.85-.35-4.72-1.03-5.61-.69-.88-1.58-1.33-2.66-1.33-.2,0-.39.03-.59.07-.2.05-.57.1-1.11.15-.54.05-1.33.15-2.36.29-1.03.15-2.43.32-4.2.52-1.08,2.36-1.97,4.35-2.66,5.98-.69,1.62-1.28,3.02-1.77,4.21-.49,1.18-.91,2.19-1.25,3.02-.35.84-.66,1.7-.96,2.58-.79,1.87-1.48,3.02-2.07,3.47-.59.44-1.28.66-2.07.66-.59,0-1.11-.24-1.55-.74-.44-.49-.66-1.18-.66-2.07,0-.59.15-1.3.44-2.14.29-.83.66-1.92,1.11-3.25s.93-3.02,1.48-5.09c.54-2.07,1.11-4.62,1.7-7.67-1.97-.89-3.67-2.97-5.09-6.27-1.42-3.29-2.14-7.16-2.14-11.58,0-3.64.62-7.33,1.84-11.07,1.23-3.74,2.75-7.16,4.57-10.25,1.82-3.1,3.79-5.63,5.9-7.6,2.11-1.97,4.01-2.95,5.68-2.95,2.16,0,4.01,1.3,5.53,3.91,1.52,2.61,2.29,5.58,2.29,8.93,0,1.77-.2,3.57-.59,5.39-.39,1.82-.81,3.49-1.25,5.02-.44,1.53-.86,2.9-1.25,4.13-.39,1.23-.59,2.19-.59,2.88,0,.88.34,1.33,1.03,1.33.49,0,1.38-.25,2.66-.74l7.23-3.25c2.66-1.08,4.92-1.62,6.79-1.62,3.15,0,5.24.98,6.27,2.95,1.03,1.97,1.55,4.87,1.55,8.71,0,1.67-.2,4.6-.59,8.78-.39,4.18-.81,8.8-1.25,13.87-.44,5.07-.84,10.11-1.18,15.12-.35,5.02-.52,9.1-.52,12.25,0,3.44.37,5.98,1.11,7.6.74,1.62,2.34,2.43,4.8,2.43,1.77,0,3.52-1.03,5.24-3.1,1.72-2.07,3.37-4.67,4.94-7.82,1.57-3.15,3.07-6.59,4.5-10.33,1.42-3.74,2.73-7.33,3.91-10.77.88-2.46,2.16-3.69,3.84-3.69,1.57,0,2.36.89,2.36,2.66,0,.29-.03.59-.07.88-.05.29-.12.64-.22,1.03Z"/>
        <path class="cls-4" d="M945.52,159.14c.59,0,1.11.2,1.55.59.44.39.66.98.66,1.77s-.15,1.53-.44,2.21c-1.48,4.13-3.08,8.02-4.79,11.66-1.72,3.64-3.32,6.89-4.8,9.74-1.77,3.25-3.49,6.29-5.16,9.15-2.07,3.25-4.35,6.32-6.86,9.22-2.51,2.9-5.24,5.46-8.19,7.67-2.95,2.21-6.15,3.96-9.59,5.24-3.44,1.28-7.08,1.92-10.92,1.92-2.85,0-5.98-.49-9.37-1.48-3.39-.98-6.54-2.8-9.44-5.46-2.9-2.66-5.31-6.29-7.23-10.92-1.92-4.62-2.88-10.57-2.88-17.85,0-3.34.32-6.74.96-10.18.64-3.44,1.53-6.74,2.66-9.89,1.13-3.15,2.41-6.1,3.84-8.85,1.42-2.75,2.88-5.16,4.35-7.23,2.56-3.54,5.26-6.86,8.11-9.96,2.85-3.1,5.73-5.8,8.63-8.11,2.9-2.31,5.73-4.11,8.48-5.39,2.75-1.28,5.31-1.92,7.67-1.92,3.74,0,7.01,1.43,9.81,4.28,2.8,2.85,4.21,6.93,4.21,12.25,0,4.62-1.18,9.42-3.54,14.39-2.36,4.97-5.31,9.81-8.85,14.53-3.54,4.72-7.33,9.1-11.36,13.13s-7.72,7.38-11.07,10.03c1.77,4.43,4.03,7.67,6.79,9.74,2.75,2.07,5.56,3.1,8.41,3.1,4.43,0,8.38-1.42,11.88-4.28,3.49-2.85,6.64-6.34,9.44-10.48,2.8-4.13,5.26-8.46,7.38-12.98,2.11-4.52,4.01-8.51,5.68-11.95.59-1.18,1.18-2.09,1.77-2.73.59-.64,1.33-.96,2.21-.96ZM888.12,166.22c0,5.8.44,10.92,1.33,15.34,1.97-1.97,3.96-4.21,5.98-6.71,2.01-2.51,3.84-5.09,5.46-7.75,1.62-2.66,2.95-5.36,3.98-8.12,1.03-2.75,1.55-5.41,1.55-7.97,0-3.93-.84-6.98-2.51-9.15-1.67-2.16-3.34-3.25-5.02-3.25-.98,0-2.09.62-3.32,1.84-1.23,1.23-2.41,3.02-3.54,5.38-1.13,2.36-2.07,5.24-2.8,8.63-.74,3.39-1.11,7.3-1.11,11.73Z"/>
      </g>
    </g>
  </g>
</svg>