<?xml version="1.0" encoding="UTF-8"?>
<svg xmlns="http://www.w3.org/2000/svg" viewBox="0 0 947.73 362.65">
  <defs>
    <style>
      .cls-1 {
        letter-spacing: 0em;
      }

      .cls-2 {
        fill: #2dad86;
      }

      .cls-3 {
        letter-spacing: 0em;
      }

      .cls-5 {
        fill: #c9a46c;
      }

      .cls-6 {
        fill: #2bad86;
        font-family: Engagement-Regular, Engagement;
        font-size: 302.16px;
      }

      .cls-7 {
        letter-spacing: -.05em;
      }

      .cls-8 {
        letter-spacing: -.03em;
      }
    </style>
  </defs>
<g id="Layer_1" data-name="Layer 1">
    <g>
      <g>
        <path class="cls-2" d="M181.24,219.38c-6.67-4.49-14.28-11.76-19.13-21.08-3.04,12.01-11.29,23.53-24.39,21.33-24.58-7.91-19-49.12-13.32-68.36.58-2.01,3.66-1.13,3.04.92-3.95,15.9-6.61,33.28-1.56,49.21,3.76,10.69,13.89,19.92,24,10.11,5.88-5.81,8.44-14.49,8.53-22.74v-.02c-.83-3.21-1.3-6.58-1.3-10.11,0-18.85-17.61-36.7-42-36.7-22.04,0-28.28,5.32-29.26,15.63-.21,2.18-1.41,4.13-3.33,5.17-3.83,2.05-10.24,5.6-13.92,8.12-1.99,1.35-3.83,2.57-5.43,3.74-.85.64-1.67,1.28-2.37,1.95,0,0,7.59,2.22,3.53,8.04-3.8,5.41-4.94,8.17-4,10.13.06.15.15.28.24.43,4.68,8.04,10.28,7.63,20.61,7.4,11.05-.26,37.96,6.54,37.96,33.2s-14.83,27.15-22.38,27.15-15.33,4.79-15.33,16.87h73.68c15.58,0,43.76-1.26,43.76-34.71,0-9.81-6.8-18.36-17.61-25.65ZM97.49,172.33c-2.78,0-5.02-1.9-5.02-4.25s2.24-4.23,5.02-4.23,5,1.9,5,4.23-2.24,4.25-5,4.25Z"/>
        <path class="cls-5" d="M100.05,230.21c-3.44-1.9-.9-4.75-.36-5.3-1.56-.6-3.36-.77-5.22-.51-5.54.77-11.56-5.51-14.83-11.05-2.39-4.04-13.42-4.19-19.17-3.98-2.09.06-3.93-1.3-4.47-3.31l-4.17-15.37s-23.49,20.14-24.24,49.06c-.98,37.22,45.27,39.99,45.27,39.99-5.79-12.83,7.52-22.89,19.6-26.91,10.84-3.61,12.33-11.67,12.53-17.83v-.13c.02-.06.02-.15.02-.24v-.02c-.06-1.28-1.45-2.48-4.96-4.4ZM47.55,265.23c-13.15-10.35-16.29-27.13-9.49-42.07,1.99-4.66,4.51-9,7.67-13.02.36-.45,1.05-.53,1.52-.17.47.38.53,1.07.15,1.54-11.63,15.8-14.71,37.49,2.78,50.34,2.2,1.75-.36,5.09-2.63,3.38ZM78.38,230c-2.78,0-5.02-.9-5.02-2.01s2.24-2.01,5.02-2.01,5,.9,5,2.01-2.24,2.01-5,2.01Z"/>
        <path class="cls-5" d="M.16,149.84c.96-11.72,4.97-38.08,19.7-38.08s27.98,30.79,27.98,50.33-14.57,23.84-23.84,23.84S-1.82,174.18.16,149.84Z"/>
        <path class="cls-5" d="M51.08,94.88c.53-7.93,9.27-48.01,31.29-48.01s24.17,53.31,17.22,67.05c-6.95,13.74-18.21,15.4-24.5,15.4s-25.83-7.28-24.01-34.44Z"/>
        <path class="cls-5" d="M216.78,149.84c-.96-11.72-4.97-38.08-19.7-38.08-14.73,0-27.98,30.79-27.98,50.33,0,19.54,14.57,23.84,23.84,23.84,9.27,0,25.83-11.75,23.84-36.09Z"/>
        <path class="cls-5" d="M165.86,94.88c-.53-7.93-9.27-48.01-31.29-48.01-22.02,0-24.17,53.31-17.22,67.05,6.95,13.74,18.21,15.4,24.5,15.4,6.29,0,25.83-7.28,24.01-34.44Z"/>
      </g>
      <text class="cls-6" transform="translate(225.82 261.92)"><tspan class="cls-8" x="0" y="0">P</tspan><tspan class="cls-3" x="173.65" y="0">et </tspan><tspan class="cls-7" x="351.74" y="0">C</tspan><tspan class="cls-1" x="503.7" y="0">are</tspan></text>
    </g>
  </g>
</svg>