<?xml version="1.0" encoding="UTF-8"?>
<svg xmlns="http://www.w3.org/2000/svg" viewBox="0 0 1080 1080">
  <defs>
    <style>
      .cls-1 {
        fill: #2dad86;
      }

      .cls-3 {
        fill: #c9a46c;
      }
    </style>
  </defs>
<g id="Layer_1" data-name="Layer 1">
    <g>
      <path class="cls-1" d="M738.33,731.76c-22.78-15.34-48.78-40.17-65.36-72.01-10.37,41.04-38.56,80.41-83.33,72.88-83.98-27.02-64.92-167.82-45.5-233.55,1.97-6.86,12.49-3.87,10.37,3.14-13.51,54.33-22.57,113.71-5.33,168.11,12.85,36.51,47.47,68.06,82.01,34.54,20.08-19.86,28.85-49.51,29.14-77.7v-.07c-2.85-10.95-4.45-22.49-4.45-34.54,0-64.41-60.18-125.39-143.5-125.39-75.29,0-96.62,18.18-99.98,53.38-.73,7.45-4.82,14.09-11.39,17.67-13.07,7.01-34.98,19.13-47.54,27.75-6.79,4.6-13.07,8.76-18.55,12.78-2.92,2.19-5.7,4.38-8.11,6.65,0,0,25.93,7.59,12.05,27.46-13,18.48-16.87,27.9-13.66,34.62.22.51.51.95.8,1.46,15.99,27.46,35.13,26.07,70.4,25.27,37.76-.88,129.7,22.35,129.7,113.42s-50.68,92.75-76.46,92.75-52.36,16.36-52.36,57.62h251.73c53.24,0,149.49-4.31,149.49-118.6,0-33.52-23.22-62.73-60.18-87.64ZM452.2,571.02c-9.49,0-17.16-6.5-17.16-14.53s7.67-14.46,17.16-14.46,17.09,6.5,17.09,14.46-7.67,14.53-17.09,14.53Z"/>
      <path class="cls-3" d="M460.97,768.79c-11.76-6.5-3.07-16.21-1.24-18.11-5.33-2.05-11.47-2.63-17.82-1.75-18.91,2.63-39.51-18.84-50.68-37.76-8.18-13.8-45.86-14.31-65.51-13.58-7.16.22-13.44-4.45-15.26-11.32l-14.24-52.51s-80.26,68.79-82.82,167.6c-3.36,127.14,154.68,136.64,154.68,136.64-19.79-43.82,25.71-78.21,66.97-91.94,37.03-12.34,42.14-39.87,42.8-60.91v-.44c.07-.22.07-.51.07-.8v-.07c-.22-4.38-4.97-8.47-16.94-15.04ZM281.61,888.41c-44.91-35.35-55.65-92.67-32.43-143.72,6.79-15.92,15.41-30.75,26.22-44.48,1.24-1.53,3.58-1.83,5.18-.58,1.61,1.31,1.83,3.65.51,5.26-39.73,53.97-50.25,128.09,9.49,171.98,7.52,5.99-1.24,17.38-8.98,11.54ZM386.91,768.06c-9.49,0-17.16-3.07-17.16-6.86s7.67-6.86,17.16-6.86,17.09,3.07,17.09,6.86-7.67,6.86-17.09,6.86Z"/>
      <path class="cls-3" d="M119.71,494.2c3.27-40.03,16.97-130.09,67.31-130.09s95.59,105.21,95.59,171.95-49.77,81.45-81.45,81.45-88.24-40.16-81.45-123.31Z"/>
      <path class="cls-3" d="M293.67,306.41c1.82-27.09,31.67-164.03,106.9-164.03s82.58,182.13,58.82,229.08c-23.76,46.95-62.22,52.6-83.71,52.6s-88.24-24.89-82.02-117.65Z"/>
      <path class="cls-3" d="M859.78,494.2c-3.27-40.03-16.97-130.09-67.31-130.09-50.34,0-95.59,105.21-95.59,171.95,0,66.74,49.77,81.45,81.45,81.45,31.67,0,88.24-40.16,81.45-123.31Z"/>
      <path class="cls-3" d="M685.82,306.41c-1.82-27.09-31.67-164.03-106.9-164.03-75.23,0-82.58,182.13-58.82,229.08,23.76,46.95,62.22,52.6,83.71,52.6,21.49,0,88.24-24.89,82.02-117.65Z"/>
    </g>
  </g>
</svg>